<svg xmlns="http://www.w3.org/2000/svg" viewBox="0 0 492 409.31"><defs><style>.cls-1{fill:#fff;}</style></defs><title>Layer 1</title><g id="Layer_2" data-name="Layer 2"><g id="Layer_1-2" data-name="Layer 1"><path class="cls-1" d="M484.14,185.54,306.46,7.86a27,27,0,0,0-38.08,0L252.24,24a26.77,26.77,0,0,0-7.86,19,27.31,27.31,0,0,0,7.86,19.27L355.9,166.18H26.58A26.27,26.27,0,0,0,0,192.66v22.81c0,14.85,11.73,27.65,26.58,27.65h330.5L252.25,347.58a26.67,26.67,0,0,0,0,37.81l16.13,16.09a27,27,0,0,0,38.08,0L484.14,223.76a27.16,27.16,0,0,0,0-38.22Z"/></g></g></svg>