<svg id="Capa_1" enable-background="new 0 0 512 512" height="512" viewBox="0 0 512 512" width="512" xmlns="http://www.w3.org/2000/svg"><g><path d="m46 512h180c8.284 0 15-6.716 15-15v-242c0-53.275-60-80.975-60-120v-120c0-8.284-6.716-15-15-15h-60c-8.284 0-15 6.716-15 15v120c0 39.064-60 66.684-60 120v242c0 8.284 6.716 15 15 15zm15-257c0-39.064 60-66.684 60-120v-105h30v105c0 53.274 60 80.975 60 120v227h-150z"/><path d="m286 512h180c8.284 0 15-6.716 15-15v-242c0-53.275-60-80.975-60-120v-120c0-8.284-6.716-15-15-15h-60c-8.284 0-15 6.716-15 15v120c0 39.064-60 66.684-60 120v242c0 8.284 6.716 15 15 15zm15-257c0-39.064 60-66.684 60-120v-105h30v105c0 53.274 60 80.975 60 120v227h-150z"/></g></svg>