<?xml version="1.0" encoding="utf-8"?>
<!-- Generator: Adobe Illustrator 23.1.1, SVG Export Plug-In . SVG Version: 6.00 Build 0)  -->
<svg version="1.1" id="Capa_1" xmlns="http://www.w3.org/2000/svg" xmlns:xlink="http://www.w3.org/1999/xlink" x="0px" y="0px"
	 viewBox="0 0 412 412" style="enable-background:new 0 0 412 412;" xml:space="preserve">
<style type="text/css">
	.st0{fill:#364A62;}
</style>
<g>
	<g>
		<g>
			<path class="st0" d="M0,283.5c0,4.2,3,7.5,7.2,7.5h11.5c7.7-17,25.3-29.9,45.6-29.9c20.4,0,37.9,12.9,45.6,29.9H259v-61H0V283.5z
				"/>
			<path class="st0" d="M64.3,277.3c-18.7,0-33.8,15.1-33.8,33.8s15.1,33.8,33.8,33.8c18.7,0,33.8-15.1,33.8-33.8
				C98.1,292.5,83,277.3,64.3,277.3z"/>
			<path class="st0" d="M407.6,205.2l-32.2-14.2H275v100h19.5c7.7-17,25.3-29.9,45.6-29.9s37.9,12.9,45.6,29.9h19.1
				c4.2,0,7.2-3.3,7.2-7.5v-71C412.1,209.4,410.4,206.6,407.6,205.2z"/>
			<path class="st0" d="M342.3,133.4c-4-7.7-12-12.5-20.7-12.3H275v54h88.9L342.3,133.4z"/>
			<path class="st0" d="M236,67.1H22.8C10,67.1,0,77.7,0,90.5v123.6h259V90.5c0,0,0-0.1,0-0.1C259.1,77.6,248.8,67.2,236,67.1z"/>
			<path class="st0" d="M340.1,277.3c-18.7,0-33.8,15.1-33.8,33.8s15.1,33.8,33.8,33.8c18.7,0,33.8-15.1,33.8-33.8v0
				C373.9,292.5,358.8,277.3,340.1,277.3z"/>
		</g>
	</g>
</g>
</svg>
