<svg xmlns="http://www.w3.org/2000/svg" viewBox="0 0 510.95 511"><defs><style>.cls-1{fill:#364a62;}</style></defs><title>Layer 1</title><g id="Layer_2" data-name="Layer 2"><g id="Layer_1-2" data-name="Layer 1"><path class="cls-1" d="M476.28,267.84a17,17,0,0,1-12.1,5H441.51a15,15,0,0,0-15,15V456.19a25.15,25.15,0,0,1-25.12,25.12H334.84V376A55.12,55.12,0,0,0,279.78,321h-48.1A55.12,55.12,0,0,0,176.61,376V481.31H110a25.15,25.15,0,0,1-25.12-25.12V287.83a15,15,0,0,0-15-15H47.66l-.7,0a17.09,17.09,0,0,1-11.78-29.18h0v0L243.64,35.2a17.09,17.09,0,0,1,24.18,0L476.21,243.59l.1.09A17.14,17.14,0,0,1,476.28,267.84Z" transform="translate(-0.25 -0.25)"/><path class="cls-1" d="M497.47,222.51a47,47,0,0,1-33.29,80.29h-7.7V456.2a55.11,55.11,0,0,1-55.06,55.05H319.86a15,15,0,0,1-15-15V376a25.14,25.14,0,0,0-25.11-25.12H231.67A25.15,25.15,0,0,0,206.55,376V496.28a15,15,0,0,1-15,15H110A55.11,55.11,0,0,1,55,456.2V302.8H46.66a14.08,14.08,0,0,1-1.45-.07,47,47,0,0,1-31.3-80.15c.06-.07.14-.14.21-.21L222.46,14A47,47,0,0,1,289,14L497.44,222.47Z" transform="translate(-0.25 -0.25)"/></g></g></svg>