<svg xmlns="http://www.w3.org/2000/svg" viewBox="0 0 390 512"><defs><style>.cls-1{fill:#364a62;}.cls-2{fill:#fff;}</style></defs><title>Capa 1</title><g id="Layer_2" data-name="Layer 2"><g id="Capa_1" data-name="Capa 1"><path class="cls-1" d="M360.25,150.25v317a15,15,0,0,1-15,15h-300a15,15,0,0,1-15-15v-422a15,15,0,0,1,15-15h195v75a45.05,45.05,0,0,0,45,45Z" transform="translate(-0.25 -0.25)"/><path class="cls-1" d="M390.25,135.25v332a45.05,45.05,0,0,1-45,45h-300a45.05,45.05,0,0,1-45-45v-422a45.05,45.05,0,0,1,45-45h210a15.14,15.14,0,0,1,10.61,4.39l120,120A15.12,15.12,0,0,1,390.25,135.25Zm-30,332v-317h-75a45.05,45.05,0,0,1-45-45v-75h-195a15,15,0,0,0-15,15v422a15,15,0,0,0,15,15h300A15,15,0,0,0,360.25,467.25Zm-75-347H339L270.25,51.46v53.79A15,15,0,0,0,285.25,120.25Z" transform="translate(-0.25 -0.25)"/><path class="cls-2" d="M285.25,242.25h-150a15,15,0,0,0,0,30h150a15,15,0,0,0,0-30Z" transform="translate(-0.25 -0.25)"/><path class="cls-2" d="M285.25,302.25h-150a15,15,0,0,0,0,30h150a15,15,0,0,0,0-30Z" transform="translate(-0.25 -0.25)"/><path class="cls-2" d="M285.25,362.25h-150a15,15,0,0,0,0,30h150a15,15,0,0,0,0-30Z" transform="translate(-0.25 -0.25)"/><circle class="cls-2" cx="75" cy="257" r="15"/><circle class="cls-2" cx="75" cy="317" r="15"/><circle class="cls-2" cx="75" cy="377" r="15"/></g></g></svg>