<svg xmlns="http://www.w3.org/2000/svg" viewBox="0 0 390 468.96"><defs><style>.cls-1{fill:#364a62;}.cls-2{fill:#fff;}</style></defs><title>Capa 1 (3)</title><g id="Layer_2" data-name="Layer 2"><g id="Capa_1" data-name="Capa 1"><path class="cls-1" d="M390.25,123.9V428c0,22.73-20.19,41.22-45,41.22h-300c-24.81,0-45-18.49-45-41.22V41.47C.25,18.74,20.44.25,45.25.25h210a15.89,15.89,0,0,1,10.61,4l120,109.91A13.31,13.31,0,0,1,390.25,123.9Zm-105-13.74H339l-68.79-63V96.42C270.25,104,277,110.16,285.25,110.16Z" transform="translate(-0.25 -0.25)"/><path class="cls-2" d="M285.25,221.91h-150c-8.28,0-15,6.15-15,13.74s6.72,13.73,15,13.73h150c8.28,0,15-6.15,15-13.73S293.53,221.91,285.25,221.91Z" transform="translate(-0.25 -0.25)"/><path class="cls-2" d="M285.25,276.86h-150c-8.28,0-15,6.15-15,13.74s6.72,13.74,15,13.74h150c8.28,0,15-6.15,15-13.74S293.53,276.86,285.25,276.86Z" transform="translate(-0.25 -0.25)"/><path class="cls-2" d="M285.25,331.82h-150c-8.28,0-15,6.15-15,13.74s6.72,13.74,15,13.74h150c8.28,0,15-6.15,15-13.74S293.53,331.82,285.25,331.82Z" transform="translate(-0.25 -0.25)"/><ellipse class="cls-2" cx="75" cy="235.4" rx="15" ry="13.74"/><ellipse class="cls-2" cx="75" cy="290.35" rx="15" ry="13.74"/><ellipse class="cls-2" cx="75" cy="345.31" rx="15" ry="13.74"/></g></g></svg>