<svg xmlns="http://www.w3.org/2000/svg" viewBox="0 0 412 277.88"><defs><style>.cls-1{fill:#364a62;}</style></defs><title>Capa 1</title><g id="Layer_2" data-name="Layer 2"><g id="Capa_1" data-name="Capa 1"><path class="cls-1" d="M0,216.46C0,220.68,3,224,7.18,224H18.65c7.71-17,25.26-29.86,45.63-29.86S102.2,207,109.91,224H259V163H0Z"/><path class="cls-1" d="M64.28,210.26a33.81,33.81,0,1,0,33.81,33.81A33.81,33.81,0,0,0,64.28,210.26Z"/><path class="cls-1" d="M407.6,138.15,375.4,124H275V224h19.49c7.71-17,25.25-29.86,45.63-29.86S378,207,385.74,224h19.08c4.22,0,7.18-3.32,7.18-7.54v-71A7.77,7.77,0,0,0,407.6,138.15Z"/><path class="cls-1" d="M342.3,66.34A23,23,0,0,0,321.57,54H275v54h88.92Z"/><path class="cls-1" d="M236,0H22.84C10,0,0,10.59,0,23.44V147H259V23.34A23.15,23.15,0,0,0,236,0Z"/><path class="cls-1" d="M340.11,210.26a33.81,33.81,0,1,0,33.82,33.81h0A33.81,33.81,0,0,0,340.11,210.26Z"/></g></g></svg>